<?xml version="1.0" encoding="UTF-8"?>
<svg id="Ebene_2" data-name="Ebene 2" xmlns="http://www.w3.org/2000/svg" viewBox="0 0 858.42 781.68">
  <defs>
    <style>
      .cls-1 {
        fill: #4caf50;
      }

      .cls-2 {
        fill: beige;
      }
    </style>
  </defs>
  <path class="cls-1" d="M430.54,81.68c32.53-36.77,70.8-63.1,117.97-74.12,86.86-20.29,162.83,2.4,228.45,61.34,85.08,76.42,100.93,195.44,59.57,297.47-28.19,69.53-72.01,129.34-120.43,185.88-78.75,91.95-172.05,166.16-276.83,226.44-9.6,5.52-15.9,2.47-23.34-1.7-104.83-58.62-197.08-132.64-275.15-224.17-42.79-50.17-80.73-103.52-109.4-163.09-41.28-85.77-42.72-171.55.96-257.02C81.54,36.48,186.89-15.14,293.39,3.92c50.01,8.95,91.34,33.78,128.34,67.18,3.11,2.8,5.43,6.47,8.81,10.58ZM323.42,624.67c23.78.62,44.46-9.08,63.62-20.89,30.68-18.91,59.21-14.6,89.17,1.68,14.69,7.98,31.2,14.03,47.6,17.15,38.97,7.43,82.9-19.6,95.01-57.02,10.68-32.98,3.39-62.38-20.46-87.26-30.69-32.03-60.18-64.87-84.55-102.23-14.69-22.52-36.57-36.59-62.61-43.7-42.31-11.56-87.12,7.7-114.24,48.5-13.17,19.82-26.09,39.91-40.81,58.54-11.3,14.3-26.21,25.7-37.81,39.8-23.82,28.97-28.51,61.84-12.24,95.6,15.26,31.67,42.13,47.94,77.32,49.83ZM620.11,174.62c-.69-44.63-22.66-75.83-58.52-84.09-27.18-6.25-51.1,3.19-70.43,21.4-38.15,35.95-47.33,81.81-37.29,131.24,11.88,58.47,68.98,77.48,115.25,39.8,35.26-28.71,48.73-67.4,50.99-108.35ZM236.89,172.94c-.21,41,22.92,88.33,55.36,113.33,39.64,30.54,91.94,16.46,108.17-30.67,17.58-51.07,6.61-97.84-29.26-137.55-23.48-25.99-53.88-35.78-88.09-24.42-29.08,9.66-45.22,37.69-46.14,75.48-.03,1.28,0,2.55-.04,3.83ZM584.2,372.1c.07,1.63.12,5.9.47,10.14,3.97,48.17,58.23,77.98,97.62,59.25,43.54-20.7,80.72-81.82,74.27-129.89-5.74-42.75-42.55-68.17-82.96-57.29-49.87,13.42-88.95,63.77-89.4,117.78ZM164.68,252.8c-32.1-.06-55.49,18.61-63.4,50.6-11.19,45.32,20.07,111.95,62.72,133.93,26.3,13.55,52.77,14.63,77.58-2.07,25.28-17.01,33.97-43.03,32.09-72.42-2.26-35.17-22.84-60.63-47.17-83.55-17.29-16.29-37.35-26.71-61.83-26.49ZM407.81,698.9c-3.22-4.43-2.8-10.44-5.52-12.91-2.52-2.29,12.7,3.5,6.3,3.52-6.97.03-2.59-9.42-6.3-3.52-.59.93,4.91-6.16,7.01-3.51,3.15,3.98,7.42,7.53,9.15,12.06,3.18,8.32,8.58,11.61,15.25,6.14,7.7-6.31,14.44-14.23,19.96-22.53,1.91-2.88-11.07,35.97-11.81,31.32-4.51.96-17.18,1.67-21.52,3.13-1.63.55-9.93-16.96-12.52-13.69Z"/>
  <path class="cls-2" d="M323.42,624.67c-35.19-1.89-62.06-18.16-77.32-49.83-16.26-33.75-11.57-66.63,12.24-95.6,11.59-14.1,26.51-25.5,37.81-39.8,14.72-18.63,27.65-38.72,40.81-58.54,27.11-40.8,71.93-60.07,114.24-48.5,26.04,7.12,47.92,21.18,62.61,43.7,24.37,37.35,53.86,70.2,84.55,102.23,23.85,24.89,31.14,54.28,20.46,87.26-12.12,37.42-56.04,64.45-95.01,57.02-16.41-3.13-32.92-9.17-47.6-17.15-29.96-16.28-58.49-20.6-89.17-1.68-19.16,11.81-39.84,21.51-63.62,20.89ZM476.73,513.02c-6.98-17.02-11.32-35.03-21-49.46-14.78-22.03-39.34-21.65-52.35-.52-8.62,14-14.86,29.58-21.06,44.9-3.18,7.85-.42,16.44,7.95,19.06,5.92,1.86,15.4,1.96,19.46-1.57,15.25-13.23,28.96-13.62,44.27-.7,3.13,2.64,10.22,4.17,13.28,2.4,4.04-2.34,5.9-8.44,9.45-14.12ZM543.28,457.61c9.82,14.15,20.25,27.92,29.32,42.53,20.17,32.51.78,75.16-36.66,81.4-23.49,3.92-44.12-5.53-65.13-13.92-12.03-4.81-25.07-11.13-37.24-10.35-11.62.74-22.71,9.81-34.26,15.33,30.1-6.37,58.21-5.08,84.2,13.3,19.78,13.98,47.41,18.13,61.08,12.02-7.74-.63-17.5-1.41-27.25-2.2,13.81-5.69,26.69-9.79,39.83-12.77,3.47-.79,7.73,1.93,14.01,3.71,24.6-18.85,32.61-41.83,21.04-70.17-10.04-24.58-29.99-41.43-48.94-58.89ZM398.72,445.34c-.2-13.87-11.16-25.68-23.45-25.26-14.44.49-25.79,14.26-25.68,31.16.07,11.34,11.24,21.46,23.84,21.59,11.59.12,25.47-14.98,25.29-27.49ZM402.29,402.52c.91,2.16,3.07,4.99,3.2,7.91.81,19.33,14.76,22.33,27.54,23.6,10.08,1,21.87-10.75,23.59-22.77,1.59-11.06-4.42-19.99-13.94-20.98-10.08-1.05-20.84,3.2-31.1,5.91-3.44.91-6.26,4.19-9.29,6.33ZM480.71,424.63c-16.07-.17-25.84,7.16-26.27,19.72-.43,12.45,8.58,22.43,20.56,22.77,16.02.46,28.07-8.66,28.16-21.29.08-11.42-10.13-21.06-22.44-21.2Z"/>
  <path class="cls-2" d="M620.11,174.62c-2.26,40.95-15.74,79.64-50.99,108.35-46.27,37.68-103.37,18.67-115.25-39.8-10.04-49.43-.86-95.29,37.29-131.24,19.33-18.21,43.26-27.65,70.43-21.4,35.86,8.25,57.83,39.46,58.52,84.09ZM566.37,239.1c.93.41,1.86.81,2.79,1.22-3.91,6.69-7.82,13.38-12.6,21.56,37.33-28.93,45.9-82.06,26.09-116.2,3.25,49.83-8.49,91.2-52.88,117.8,1.16,1.03,2.33,2.06,3.49,3.08,11.04-9.15,22.07-18.31,33.11-27.46Z"/>
  <path class="cls-2" d="M236.91,172.94c.02-1.28,0-2.55.02-3.83.92-37.79,17.06-65.82,46.14-75.48,34.21-11.36,64.62-1.58,88.09,24.42,35.87,39.71,46.84,86.48,29.26,137.55-16.22,47.13-68.53,61.21-108.17,30.67-32.44-25-55.57-72.33-55.34-113.33ZM273.89,152.09c-.29,6.52,8.62,8.21,16.09,9.93,7,1.61,18.78-12.62,18.97-22.27.2-10.11-7.05-14.03-15.29-15.76-7.29-1.54-18.33,12.36-19.77,28.1ZM374.27,247.22c15.47-27,7.94-78.74-10.05-94.96,3.08,29.13,6.49,61.34,10.05,94.96Z"/>
  <path class="cls-2" d="M584.2,372.1c.45-54.02,39.53-104.37,89.4-117.78,40.42-10.87,77.23,14.55,82.96,57.29,6.45,48.07-30.72,109.19-74.27,129.89-39.39,18.72-93.65-11.08-97.62-59.25-.35-4.24-.4-8.51-.47-10.14ZM717.55,301.11c12.27,32.32,5.84,61.81-12.28,89.73,26.88-21.83,34.06-72.09,12.28-89.73Z"/>
  <path class="cls-2" d="M164.68,252.8c24.48-.21,44.54,10.21,61.83,26.49,24.33,22.92,44.91,48.38,47.17,83.55,1.89,29.39-6.81,55.41-32.09,72.42-24.81,16.7-51.29,15.62-77.58,2.07-42.65-21.98-73.92-88.61-62.72-133.93,7.9-31.99,31.29-50.67,63.4-50.61ZM208.19,419.02c19.6-1.29,32.96-11.13,37.97-27.51,9.05-29.6-1.18-54.43-20.1-77,12.95,37.55,20.2,74.01-17.87,104.5ZM143.44,327.39c13.04-.43,19.41-10.15,18.97-23.08-.26-7.54-1.73-14.98-11.46-14.94-7.92.03-19.77,17.16-17.61,27.79.96,4.76,8.05,8.28,10.1,10.22Z"/>
  <path class="cls-1" d="M476.73,513.02c-3.55,5.68-5.41,11.78-9.45,14.12-3.06,1.77-10.15.24-13.28-2.4-15.31-12.92-29.02-12.53-44.27.7-4.06,3.53-13.54,3.42-19.46,1.57-8.36-2.63-11.12-11.21-7.95-19.06,6.2-15.32,12.45-30.9,21.06-44.9,13.01-21.13,37.57-21.51,52.35.52,9.68,14.43,14.02,32.44,21,49.46Z"/>
  <path class="cls-1" d="M543.28,457.61c18.96,17.46,38.91,34.31,48.94,58.89,11.57,28.34,3.56,51.32-21.04,70.17-6.28-1.78-10.54-4.5-14.01-3.71-13.14,2.97-26.02,7.08-39.83,12.77,9.75.79,19.5,1.58,27.25,2.2-13.67,6.11-41.3,1.96-61.08-12.02-26-18.38-54.1-19.67-84.2-13.3,11.55-5.52,22.64-14.59,34.26-15.33,12.17-.78,25.21,5.54,37.24,10.35,21.02,8.4,41.64,17.84,65.13,13.92,37.44-6.24,56.83-48.9,36.66-81.4-9.07-14.61-19.5-28.38-29.32-42.53Z"/>
  <path class="cls-1" d="M398.72,445.34c.18,12.52-13.71,27.61-25.29,27.49-12.59-.13-23.76-10.25-23.84-21.59-.11-16.91,11.24-30.67,25.68-31.16,12.29-.42,23.26,11.39,23.45,25.26Z"/>
  <path class="cls-1" d="M402.29,402.52c3.03-2.14,5.85-5.42,9.29-6.33,10.26-2.71,21.02-6.96,31.1-5.91,9.52.99,15.53,9.92,13.94,20.98-1.72,12.02-13.51,23.77-23.59,22.77-12.78-1.27-26.73-4.27-27.54-23.6-.12-2.92-2.28-5.76-3.2-7.91Z"/>
  <path class="cls-1" d="M480.71,424.63c12.31.13,22.52,9.77,22.44,21.2-.09,12.63-12.14,21.75-28.16,21.29-11.98-.34-20.98-10.32-20.56-22.77.43-12.56,10.2-19.89,26.27-19.72Z"/>
  <path class="cls-1" d="M566.37,239.1c-11.04,9.15-22.07,18.31-33.11,27.46-1.16-1.03-2.33-2.06-3.49-3.08,44.39-26.61,56.13-67.97,52.88-117.8,19.81,34.14,11.23,87.27-26.09,116.2,4.78-8.17,8.69-14.86,12.6-21.56-.93-.41-1.86-.81-2.79-1.22Z"/>
  <path class="cls-1" d="M273.89,152.09c1.44-15.74,12.48-29.64,19.77-28.1,8.24,1.74,15.49,5.65,15.29,15.76-.19,9.65-11.97,23.88-18.97,22.27-7.47-1.72-16.38-3.41-16.09-9.93Z"/>
  <path class="cls-1" d="M374.27,247.22c-3.56-33.61-6.97-65.82-10.05-94.96,17.99,16.22,25.52,67.96,10.05,94.96Z"/>
  <path class="cls-1" d="M717.55,301.11c21.78,17.64,14.59,67.9-12.28,89.73,18.12-27.92,24.56-57.41,12.28-89.73Z"/>
  <path class="cls-1" d="M208.19,419.02c38.07-30.49,30.83-66.96,17.87-104.5,18.92,22.57,29.14,47.4,20.1,77-5.01,16.38-18.37,26.21-37.97,27.51Z"/>
  <path class="cls-1" d="M143.44,327.39c-2.05-1.95-9.14-5.46-10.1-10.22-2.16-10.63,9.69-27.76,17.61-27.79,9.73-.04,11.2,7.4,11.46,14.94.44,12.92-5.93,22.64-18.97,23.08Z"/>
  <path class="cls-2" d="M291.2,32.6c-150.82,9.9-226.27,99.99-257.22,237.26-18.33-35.18,13.7-137.99,59.2-187.42C142,29.38,230.46,5.84,291.2,32.6Z"/>
</svg>